<svg xmlns="http://www.w3.org/2000/svg" width="1920" height="1080"><path d="M-215,-263L138,-222L641,-260Z" fill="#ffe9ce" stroke="#ffe9ce" stroke-width="1.51"/><path d="M1303,1286L1142,1322L1579,1290Z" fill="#bb331f" stroke="#bb331f" stroke-width="1.51"/><path d="M1037,-202L1313,-192L1592,-243Z" fill="#fdaa8d" stroke="#fdaa8d" stroke-width="1.51"/><path d="M860,-229L1037,-202L1592,-243Z" fill="#ffb495" stroke="#ffb495" stroke-width="1.51"/><path d="M641,-260L860,-229L1592,-243Z" fill="#ffbd9b" stroke="#ffbd9b" stroke-width="1.51"/><path d="M641,-260L1592,-243L1762,-255Z" fill="#fdaa8f" stroke="#fdaa8f" stroke-width="1.51"/><path d="M1142,1322L848,1331L1822,1342Z" fill="#ba3824" stroke="#ba3824" stroke-width="1.51"/><path d="M848,1331L600,1346L1822,1342Z" fill="#bd4629" stroke="#bd4629" stroke-width="1.51"/><path d="M1579,1290L1142,1322L1822,1342Z" fill="#b22113" stroke="#b22113" stroke-width="1.51"/><path d="M-215,-263L641,-260L1940,-258Z" fill="#ffceac" stroke="#ffceac" stroke-width="1.51"/><path d="M641,-260L1762,-255L1940,-258Z" fill="#faa287" stroke="#faa287" stroke-width="1.51"/><path d="M2046,676L2054,852L2067,578Z" fill="#c13f26" stroke="#c13f26" stroke-width="1.51"/><path d="M1956,396L2067,578L2106,356Z" fill="#c95d36" stroke="#c95d36" stroke-width="1.51"/><path d="M2084,-190L1980,-39L2115,-44Z" fill="#cf8060" stroke="#cf8060" stroke-width="1.51"/><path d="M2054,852L1952,961L2119,1042Z" fill="#b41b10" stroke="#b41b10" stroke-width="1.51"/><path d="M2072,1170L2057,1257L2119,1042Z" fill="#9f0001" stroke="#9f0001" stroke-width="1.51"/><path d="M2106,356L2067,578L2119,1042Z" fill="#bf4328" stroke="#bf4328" stroke-width="1.51"/><path d="M2067,578L2054,852L2119,1042Z" fill="#b9301d" stroke="#b9301d" stroke-width="1.51"/><path d="M1990,220L2106,356L2137,224Z" fill="#c86d44" stroke="#c86d44" stroke-width="1.51"/><path d="M2032,97L1990,220L2137,224Z" fill="#cb7349" stroke="#cb7349" stroke-width="1.51"/><path d="M2115,-44L2032,97L2137,224Z" fill="#c9764f" stroke="#c9764f" stroke-width="1.51"/><path d="M2106,356L2119,1042L2137,224Z" fill="#c14f2c" stroke="#c14f2c" stroke-width="1.51"/><path d="M1980,-39L2032,97L2115,-44Z" fill="#cf7c58" stroke="#cf7c58" stroke-width="1.51"/><path d="M1893,1100L2072,1170L2119,1042Z" fill="#a90805" stroke="#a90805" stroke-width="1.51"/><path d="M1952,961L1893,1100L2119,1042Z" fill="#b2130a" stroke="#b2130a" stroke-width="1.51"/><path d="M2046,676L1945,713L2054,852Z" fill="#c33b25" stroke="#c33b25" stroke-width="1.51"/><path d="M1891,1243L1822,1342L2057,1257Z" fill="#9e0001" stroke="#9e0001" stroke-width="1.51"/><path d="M1956,396L1920,549L2067,578Z" fill="#ce5630" stroke="#ce5630" stroke-width="1.51"/><path d="M1990,220L1956,396L2106,356Z" fill="#cd6b41" stroke="#cd6b41" stroke-width="1.51"/><path d="M1980,-39L1976,86L2032,97Z" fill="#d37c54" stroke="#d37c54" stroke-width="1.51"/><path d="M1962,860L1952,961L2054,852Z" fill="#bd2716" stroke="#bd2716" stroke-width="1.51"/><path d="M1945,713L1962,860L2054,852Z" fill="#c2341f" stroke="#c2341f" stroke-width="1.51"/><path d="M1940,-258L1980,-39L2084,-190Z" fill="#d68467" stroke="#d68467" stroke-width="1.51"/><path d="M1920,549L2046,676L2067,578Z" fill="#c84c2a" stroke="#c84c2a" stroke-width="1.51"/><path d="M1891,1243L2057,1257L2072,1170Z" fill="#9d0001" stroke="#9d0001" stroke-width="1.51"/><path d="M1893,1100L1891,1243L2072,1170Z" fill="#a90001" stroke="#a90001" stroke-width="1.51"/><path d="M1976,86L1990,220L2032,97Z" fill="#d1774c" stroke="#d1774c" stroke-width="1.51"/><path d="M1920,549L1945,713L2046,676Z" fill="#cb4728" stroke="#cb4728" stroke-width="1.51"/><path d="M1940,-258L1743,-105L1980,-39Z" fill="#e18765" stroke="#e18765" stroke-width="1.51"/><path d="M1767,48L1976,86L1980,-39Z" fill="#dc7f56" stroke="#dc7f56" stroke-width="1.51"/><path d="M1976,86L1829,222L1990,220Z" fill="#d7774a" stroke="#d7774a" stroke-width="1.51"/><path d="M1829,222L1956,396L1990,220Z" fill="#d67144" stroke="#d67144" stroke-width="1.51"/><path d="M1840,535L1920,549L1956,396Z" fill="#d65a32" stroke="#d65a32" stroke-width="1.51"/><path d="M1945,713L1836,893L1962,860Z" fill="#c8321e" stroke="#c8321e" stroke-width="1.51"/><path d="M1743,-105L1767,48L1980,-39Z" fill="#e3855e" stroke="#e3855e" stroke-width="1.51"/><path d="M1762,-255L1743,-105L1940,-258Z" fill="#e78c6d" stroke="#e78c6d" stroke-width="1.51"/><path d="M1829,222L1798,417L1956,396Z" fill="#dc6e40" stroke="#dc6e40" stroke-width="1.51"/><path d="M1836,893L1952,961L1962,860Z" fill="#c32616" stroke="#c32616" stroke-width="1.51"/><path d="M1767,48L1829,222L1976,86Z" fill="#df7d4e" stroke="#df7d4e" stroke-width="1.51"/><path d="M1920,549L1840,535L1945,713Z" fill="#d34e2a" stroke="#d34e2a" stroke-width="1.51"/><path d="M1840,535L1755,678L1945,713Z" fill="#d64b29" stroke="#d64b29" stroke-width="1.51"/><path d="M1816,1090L1893,1100L1952,961Z" fill="#ba1108" stroke="#ba1108" stroke-width="1.51"/><path d="M1798,417L1840,535L1956,396Z" fill="#da6136" stroke="#da6136" stroke-width="1.51"/><path d="M1755,678L1836,893L1945,713Z" fill="#d13d24" stroke="#d13d24" stroke-width="1.51"/><path d="M1781,950L1816,1090L1952,961Z" fill="#c1190c" stroke="#c1190c" stroke-width="1.51"/><path d="M1836,893L1781,950L1952,961Z" fill="#c62212" stroke="#c62212" stroke-width="1.51"/><path d="M1313,-192L1438,-197L1592,-243Z" fill="#f9a083" stroke="#f9a083" stroke-width="1.51"/><path d="M1816,1090L1891,1243L1893,1100Z" fill="#b40201" stroke="#b40201" stroke-width="1.51"/><path d="M1816,1090L1822,1342L1891,1243Z" fill="#ab0201" stroke="#ab0201" stroke-width="1.51"/><path d="M1816,1090L1628,1093L1822,1342Z" fill="#b70d05" stroke="#b70d05" stroke-width="1.51"/><path d="M1628,1093L1579,1290L1822,1342Z" fill="#b31309" stroke="#b31309" stroke-width="1.51"/><path d="M1767,48L1652,112L1829,222Z" fill="#e58153" stroke="#e58153" stroke-width="1.51"/><path d="M1646,260L1798,417L1829,222Z" fill="#e27548" stroke="#e27548" stroke-width="1.51"/><path d="M1660,828L1781,950L1836,893Z" fill="#cf2f1b" stroke="#cf2f1b" stroke-width="1.51"/><path d="M1755,678L1660,828L1836,893Z" fill="#d53d25" stroke="#d53d25" stroke-width="1.51"/><path d="M1798,417L1664,493L1840,535Z" fill="#df6137" stroke="#df6137" stroke-width="1.51"/><path d="M1664,493L1755,678L1840,535Z" fill="#de5731" stroke="#de5731" stroke-width="1.51"/><path d="M1652,112L1646,260L1829,222Z" fill="#e67e51" stroke="#e67e51" stroke-width="1.51"/><path d="M1646,260L1655,437L1798,417Z" fill="#e57245" stroke="#e57245" stroke-width="1.51"/><path d="M1781,950L1628,1093L1816,1090Z" fill="#c41d0f" stroke="#c41d0f" stroke-width="1.51"/><path d="M1611,1007L1628,1093L1781,950Z" fill="#ca2415" stroke="#ca2415" stroke-width="1.51"/><path d="M1664,493L1611,655L1755,678Z" fill="#e15633" stroke="#e15633" stroke-width="1.51"/><path d="M1655,437L1664,493L1798,417Z" fill="#e3683d" stroke="#e3683d" stroke-width="1.51"/><path d="M1592,-243L1743,-105L1762,-255Z" fill="#ee9173" stroke="#ee9173" stroke-width="1.51"/><path d="M1743,-105L1609,-24L1767,48Z" fill="#ea8a63" stroke="#ea8a63" stroke-width="1.51"/><path d="M1660,828L1611,1007L1781,950Z" fill="#d12d1c" stroke="#d12d1c" stroke-width="1.51"/><path d="M1611,655L1660,828L1755,678Z" fill="#dd4a2f" stroke="#dd4a2f" stroke-width="1.51"/><path d="M1609,-24L1652,112L1767,48Z" fill="#eb885e" stroke="#eb885e" stroke-width="1.51"/><path d="M1592,-243L1609,-24L1743,-105Z" fill="#ef916f" stroke="#ef916f" stroke-width="1.51"/><path d="M1037,-202L1179,-179L1313,-192Z" fill="#ffb292" stroke="#ffb292" stroke-width="1.51"/><path d="M1471,1250L1303,1286L1579,1290Z" fill="#ba2918" stroke="#ba2918" stroke-width="1.51"/><path d="M1592,-243L1474,-104L1609,-24Z" fill="#f49574" stroke="#f49574" stroke-width="1.51"/><path d="M1532,1162L1579,1290L1628,1093Z" fill="#c11c0f" stroke="#c11c0f" stroke-width="1.51"/><path d="M1439,237L1445,430L1646,260Z" fill="#ef8155" stroke="#ef8155" stroke-width="1.51"/><path d="M1609,-24L1518,48L1652,112Z" fill="#f08c63" stroke="#f08c63" stroke-width="1.51"/><path d="M1439,237L1646,260L1652,112Z" fill="#ee8456" stroke="#ee8456" stroke-width="1.51"/><path d="M1518,48L1439,237L1652,112Z" fill="#f18b5d" stroke="#f18b5d" stroke-width="1.51"/><path d="M1646,260L1445,430L1655,437Z" fill="#eb764b" stroke="#eb764b" stroke-width="1.51"/><path d="M1611,655L1510,819L1660,828Z" fill="#e04830" stroke="#e04830" stroke-width="1.51"/><path d="M1510,819L1611,1007L1660,828Z" fill="#d93925" stroke="#d93925" stroke-width="1.51"/><path d="M1468,595L1611,655L1664,493Z" fill="#e85e39" stroke="#e85e39" stroke-width="1.51"/><path d="M1655,437L1445,430L1664,493Z" fill="#ea6d43" stroke="#ea6d43" stroke-width="1.51"/><path d="M1445,430L1468,595L1664,493Z" fill="#ed6a41" stroke="#ed6a41" stroke-width="1.51"/><path d="M1510,819L1487,1043L1611,1007Z" fill="#d83220" stroke="#d83220" stroke-width="1.51"/><path d="M1444,656L1510,819L1611,655Z" fill="#e65437" stroke="#e65437" stroke-width="1.51"/><path d="M1611,1007L1487,1043L1628,1093Z" fill="#cd2718" stroke="#cd2718" stroke-width="1.51"/><path d="M1487,1043L1532,1162L1628,1093Z" fill="#ca2415" stroke="#ca2415" stroke-width="1.51"/><path d="M1438,-197L1474,-104L1592,-243Z" fill="#f79b7d" stroke="#f79b7d" stroke-width="1.51"/><path d="M1468,595L1444,656L1611,655Z" fill="#e95d3b" stroke="#e95d3b" stroke-width="1.51"/><path d="M1532,1162L1471,1250L1579,1290Z" fill="#bd2113" stroke="#bd2113" stroke-width="1.51"/><path d="M1474,-104L1518,48L1609,-24Z" fill="#f3936d" stroke="#f3936d" stroke-width="1.51"/><path d="M1380,112L1439,237L1518,48Z" fill="#f39164" stroke="#f39164" stroke-width="1.51"/><path d="M1319,1036L1487,1043L1510,819Z" fill="#db3c27" stroke="#db3c27" stroke-width="1.51"/><path d="M1281,791L1319,1036L1510,819Z" fill="#e44c33" stroke="#e44c33" stroke-width="1.51"/><path d="M1474,-104L1377,-72L1518,48Z" fill="#f69974" stroke="#f69974" stroke-width="1.51"/><path d="M1487,1043L1336,1125L1532,1162Z" fill="#ce2f1c" stroke="#ce2f1c" stroke-width="1.51"/><path d="M1336,1125L1471,1250L1532,1162Z" fill="#c72b18" stroke="#c72b18" stroke-width="1.51"/><path d="M1444,656L1330,728L1510,819Z" fill="#e9593d" stroke="#e9593d" stroke-width="1.51"/><path d="M1377,-72L1380,112L1518,48Z" fill="#f6976f" stroke="#f6976f" stroke-width="1.51"/><path d="M1439,237L1309,354L1445,430Z" fill="#f3875b" stroke="#f3875b" stroke-width="1.51"/><path d="M1330,728L1281,791L1510,819Z" fill="#e9583c" stroke="#e9583c" stroke-width="1.51"/><path d="M1445,430L1333,593L1468,595Z" fill="#f06e46" stroke="#f06e46" stroke-width="1.51"/><path d="M1319,1036L1336,1125L1487,1043Z" fill="#d53a23" stroke="#d53a23" stroke-width="1.51"/><path d="M1336,1125L1303,1286L1471,1250Z" fill="#c5321e" stroke="#c5321e" stroke-width="1.51"/><path d="M1438,-197L1377,-72L1474,-104Z" fill="#f89e7d" stroke="#f89e7d" stroke-width="1.51"/><path d="M1333,593L1444,656L1468,595Z" fill="#ed6743" stroke="#ed6743" stroke-width="1.51"/><path d="M1313,-192L1377,-72L1438,-197Z" fill="#faa383" stroke="#faa383" stroke-width="1.51"/><path d="M1380,112L1285,203L1439,237Z" fill="#f69466" stroke="#f69466" stroke-width="1.51"/><path d="M1232,502L1333,593L1445,430Z" fill="#f4784e" stroke="#f4784e" stroke-width="1.51"/><path d="M1309,354L1232,502L1445,430Z" fill="#f58257" stroke="#f58257" stroke-width="1.51"/><path d="M1285,203L1309,354L1439,237Z" fill="#f69063" stroke="#f69063" stroke-width="1.51"/><path d="M1333,593L1330,728L1444,656Z" fill="#ee6544" stroke="#ee6544" stroke-width="1.51"/><path d="M1281,791L1189,855L1319,1036Z" fill="#e75439" stroke="#e75439" stroke-width="1.51"/><path d="M1189,855L1220,1028L1319,1036Z" fill="#e24d33" stroke="#e24d33" stroke-width="1.51"/><path d="M1219,-85L1176,76L1377,-72Z" fill="#fca681" stroke="#fca681" stroke-width="1.51"/><path d="M1313,-192L1219,-85L1377,-72Z" fill="#fca786" stroke="#fca786" stroke-width="1.51"/><path d="M1377,-72L1176,76L1380,112Z" fill="#f9a077" stroke="#f9a077" stroke-width="1.51"/><path d="M1176,76L1285,203L1380,112Z" fill="#f99d70" stroke="#f99d70" stroke-width="1.51"/><path d="M1238,671L1330,728L1333,593Z" fill="#f06a48" stroke="#f06a48" stroke-width="1.51"/><path d="M1186,1104L1303,1286L1336,1125Z" fill="#cf3d24" stroke="#cf3d24" stroke-width="1.51"/><path d="M1319,1036L1220,1028L1336,1125Z" fill="#d9422a" stroke="#d9422a" stroke-width="1.51"/><path d="M1220,1028L1186,1104L1336,1125Z" fill="#d8452b" stroke="#d8452b" stroke-width="1.51"/><path d="M1285,203L1140,259L1309,354Z" fill="#f9976a" stroke="#f9976a" stroke-width="1.51"/><path d="M1232,502L1238,671L1333,593Z" fill="#f4744e" stroke="#f4744e" stroke-width="1.51"/><path d="M1238,671L1281,791L1330,728Z" fill="#ef6547" stroke="#ef6547" stroke-width="1.51"/><path d="M1186,1104L1142,1322L1303,1286Z" fill="#c84026" stroke="#c84026" stroke-width="1.51"/><path d="M1134,439L1232,502L1309,354Z" fill="#f8895c" stroke="#f8895c" stroke-width="1.51"/><path d="M1179,-179L1219,-85L1313,-192Z" fill="#feac8d" stroke="#feac8d" stroke-width="1.51"/><path d="M1140,259L1134,439L1309,354Z" fill="#f99465" stroke="#f99465" stroke-width="1.51"/><path d="M1238,671L1189,855L1281,791Z" fill="#ee6446" stroke="#ee6446" stroke-width="1.51"/><path d="M1176,76L1140,259L1285,203Z" fill="#fa9f70" stroke="#fa9f70" stroke-width="1.51"/><path d="M1066,135L1140,259L1176,76Z" fill="#fba574" stroke="#fba574" stroke-width="1.51"/><path d="M1024,1156L1142,1322L1186,1104Z" fill="#d04929" stroke="#d04929" stroke-width="1.51"/><path d="M1078,673L1036,797L1189,855Z" fill="#f16d49" stroke="#f16d49" stroke-width="1.51"/><path d="M1062,-33L1176,76L1219,-85Z" fill="#fdac83" stroke="#fdac83" stroke-width="1.51"/><path d="M1189,855L1029,945L1220,1028Z" fill="#e75737" stroke="#e75737" stroke-width="1.51"/><path d="M1134,439L1078,673L1232,502Z" fill="#f88153" stroke="#f88153" stroke-width="1.51"/><path d="M1232,502L1078,673L1238,671Z" fill="#f5784f" stroke="#f5784f" stroke-width="1.51"/><path d="M1078,673L1189,855L1238,671Z" fill="#f26d4b" stroke="#f26d4b" stroke-width="1.51"/><path d="M992,504L1078,673L1134,439Z" fill="#fa8656" stroke="#fa8656" stroke-width="1.51"/><path d="M1179,-179L1062,-33L1219,-85Z" fill="#feb08b" stroke="#feb08b" stroke-width="1.51"/><path d="M1029,945L1186,1104L1220,1028Z" fill="#e05131" stroke="#e05131" stroke-width="1.51"/><path d="M1046,425L1134,439L1140,259Z" fill="#fa9766" stroke="#fa9766" stroke-width="1.51"/><path d="M1037,-202L1062,-33L1179,-179Z" fill="#ffb590" stroke="#ffb590" stroke-width="1.51"/><path d="M1029,945L1024,1156L1186,1104Z" fill="#de5330" stroke="#de5330" stroke-width="1.51"/><path d="M1036,797L1029,945L1189,855Z" fill="#ec6441" stroke="#ec6441" stroke-width="1.51"/><path d="M138,-222L311,-201L641,-260Z" fill="#ffe3c0" stroke="#ffe3c0" stroke-width="1.51"/><path d="M980,1252L848,1331L1142,1322Z" fill="#c54e2b" stroke="#c54e2b" stroke-width="1.51"/><path d="M1024,1156L980,1252L1142,1322Z" fill="#cb4c2a" stroke="#cb4c2a" stroke-width="1.51"/><path d="M1062,-33L1066,135L1176,76Z" fill="#fdac7d" stroke="#fdac7d" stroke-width="1.51"/><path d="M1046,425L992,504L1134,439Z" fill="#fb905e" stroke="#fb905e" stroke-width="1.51"/><path d="M1066,135L1016,231L1140,259Z" fill="#fca572" stroke="#fca572" stroke-width="1.51"/><path d="M1016,231L1046,425L1140,259Z" fill="#fc9f6d" stroke="#fc9f6d" stroke-width="1.51"/><path d="M874,1035L1024,1156L1029,945Z" fill="#e25c34" stroke="#e25c34" stroke-width="1.51"/><path d="M1016,231L890,340L1046,425Z" fill="#fda36e" stroke="#fda36e" stroke-width="1.51"/><path d="M1037,-202L877,-105L1062,-33Z" fill="#ffba91" stroke="#ffba91" stroke-width="1.51"/><path d="M1062,-33L938,50L1066,135Z" fill="#feb181" stroke="#feb181" stroke-width="1.51"/><path d="M879,729L1036,797L1078,673Z" fill="#f57850" stroke="#f57850" stroke-width="1.51"/><path d="M992,504L879,729L1078,673Z" fill="#f98354" stroke="#f98354" stroke-width="1.51"/><path d="M938,50L1016,231L1066,135Z" fill="#feae79" stroke="#feae79" stroke-width="1.51"/><path d="M858,841L1029,945L1036,797Z" fill="#ef6c44" stroke="#ef6c44" stroke-width="1.51"/><path d="M877,-105L938,50L1062,-33Z" fill="#ffb98b" stroke="#ffb98b" stroke-width="1.51"/><path d="M641,-260L728,-225L860,-229Z" fill="#ffd1ad" stroke="#ffd1ad" stroke-width="1.51"/><path d="M903,494L879,729L992,504Z" fill="#fb8d5a" stroke="#fb8d5a" stroke-width="1.51"/><path d="M938,50L877,214L1016,231Z" fill="#feb07a" stroke="#feb07a" stroke-width="1.51"/><path d="M903,494L992,504L1046,425Z" fill="#fc935f" stroke="#fc935f" stroke-width="1.51"/><path d="M890,340L903,494L1046,425Z" fill="#fd9c66" stroke="#fd9c66" stroke-width="1.51"/><path d="M860,-229L877,-105L1037,-202Z" fill="#ffc19a" stroke="#ffc19a" stroke-width="1.51"/><path d="M879,729L858,841L1036,797Z" fill="#f3784e" stroke="#f3784e" stroke-width="1.51"/><path d="M874,1035L832,1148L1024,1156Z" fill="#de5d33" stroke="#de5d33" stroke-width="1.51"/><path d="M858,841L874,1035L1029,945Z" fill="#eb683f" stroke="#eb683f" stroke-width="1.51"/><path d="M877,214L890,340L1016,231Z" fill="#fdab75" stroke="#fdab75" stroke-width="1.51"/><path d="M832,1148L980,1252L1024,1156Z" fill="#d5562d" stroke="#d5562d" stroke-width="1.51"/><path d="M780,679L879,729L903,494Z" fill="#fa8d5c" stroke="#fa8d5c" stroke-width="1.51"/><path d="M832,1148L848,1331L980,1252Z" fill="#ce5931" stroke="#ce5931" stroke-width="1.51"/><path d="M740,505L780,679L903,494Z" fill="#fc9763" stroke="#fc9763" stroke-width="1.51"/><path d="M877,-105L750,-54L938,50Z" fill="#ffc193" stroke="#ffc193" stroke-width="1.51"/><path d="M750,-54L745,106L938,50Z" fill="#ffc18f" stroke="#ffc18f" stroke-width="1.51"/><path d="M745,106L877,214L938,50Z" fill="#feb983" stroke="#feb983" stroke-width="1.51"/><path d="M832,1148L752,1266L848,1331Z" fill="#ce5f36" stroke="#ce5f36" stroke-width="1.51"/><path d="M858,841L769,1038L874,1035Z" fill="#ea6d43" stroke="#ea6d43" stroke-width="1.51"/><path d="M877,214L683,272L890,340Z" fill="#fdb37c" stroke="#fdb37c" stroke-width="1.51"/><path d="M890,340L715,415L903,494Z" fill="#fda56f" stroke="#fda56f" stroke-width="1.51"/><path d="M715,415L740,505L903,494Z" fill="#fda36c" stroke="#fda36c" stroke-width="1.51"/><path d="M769,1038L832,1148L874,1035Z" fill="#e2673c" stroke="#e2673c" stroke-width="1.51"/><path d="M860,-229L728,-225L877,-105Z" fill="#ffcaa3" stroke="#ffcaa3" stroke-width="1.51"/><path d="M683,272L715,415L890,340Z" fill="#fdb37b" stroke="#fdb37b" stroke-width="1.51"/><path d="M780,679L688,786L858,841Z" fill="#f6865b" stroke="#f6865b" stroke-width="1.51"/><path d="M728,-225L750,-54L877,-105Z" fill="#ffcaa1" stroke="#ffcaa1" stroke-width="1.51"/><path d="M780,679L858,841L879,729Z" fill="#f78358" stroke="#f78358" stroke-width="1.51"/><path d="M631,958L769,1038L858,841Z" fill="#ed754a" stroke="#ed754a" stroke-width="1.51"/><path d="M745,106L683,272L877,214Z" fill="#fdbc84" stroke="#fdbc84" stroke-width="1.51"/><path d="M752,1266L600,1346L848,1331Z" fill="#c6623b" stroke="#c6623b" stroke-width="1.51"/><path d="M688,786L631,958L858,841Z" fill="#f28154" stroke="#f28154" stroke-width="1.51"/><path d="M700,1193L752,1266L832,1148Z" fill="#d5653a" stroke="#d5653a" stroke-width="1.51"/><path d="M769,1038L700,1193L832,1148Z" fill="#de683c" stroke="#de683c" stroke-width="1.51"/><path d="M606,866L631,958L688,786Z" fill="#f28659" stroke="#f28659" stroke-width="1.51"/><path d="M638,696L688,786L780,679Z" fill="#f89163" stroke="#f89163" stroke-width="1.51"/><path d="M740,505L624,595L780,679Z" fill="#fc9b68" stroke="#fc9b68" stroke-width="1.51"/><path d="M624,595L638,696L780,679Z" fill="#fa9868" stroke="#fa9868" stroke-width="1.51"/><path d="M591,200L683,272L745,106Z" fill="#fdc38c" stroke="#fdc38c" stroke-width="1.51"/><path d="M728,-225L641,-260L750,-54Z" fill="#ffd1ab" stroke="#ffd1ab" stroke-width="1.51"/><path d="M546,58L745,106L750,-54Z" fill="#fecb98" stroke="#fecb98" stroke-width="1.51"/><path d="M539,-14L546,58L750,-54Z" fill="#fed0a0" stroke="#fed0a0" stroke-width="1.51"/><path d="M631,958L700,1193L769,1038Z" fill="#e47245" stroke="#e47245" stroke-width="1.51"/><path d="M409,1276L167,1337L600,1346Z" fill="#c8734a" stroke="#c8734a" stroke-width="1.51"/><path d="M631,958L531,1162L700,1193Z" fill="#e17447" stroke="#e17447" stroke-width="1.51"/><path d="M641,-260L539,-14L750,-54Z" fill="#ffd3a9" stroke="#ffd3a9" stroke-width="1.51"/><path d="M700,1193L600,1346L752,1266Z" fill="#cd683e" stroke="#cd683e" stroke-width="1.51"/><path d="M546,58L591,200L745,106Z" fill="#fdca93" stroke="#fdca93" stroke-width="1.51"/><path d="M715,415L565,440L740,505Z" fill="#fdad76" stroke="#fdad76" stroke-width="1.51"/><path d="M565,440L624,595L740,505Z" fill="#fda871" stroke="#fda871" stroke-width="1.51"/><path d="M683,272L565,440L715,415Z" fill="#fdb77f" stroke="#fdb77f" stroke-width="1.51"/><path d="M490,382L565,440L683,272Z" fill="#fdbb84" stroke="#fdbb84" stroke-width="1.51"/><path d="M531,1162L600,1346L700,1193Z" fill="#d26e43" stroke="#d26e43" stroke-width="1.51"/><path d="M437,-73L539,-14L641,-260Z" fill="#ffd8ae" stroke="#ffd8ae" stroke-width="1.51"/><path d="M591,200L490,382L683,272Z" fill="#fdc18a" stroke="#fdc18a" stroke-width="1.51"/><path d="M638,696L606,866L688,786Z" fill="#f68f62" stroke="#f68f62" stroke-width="1.51"/><path d="M232,1299L167,1337L409,1276Z" fill="#cc7852" stroke="#cc7852" stroke-width="1.51"/><path d="M565,440L478,574L624,595Z" fill="#fea973" stroke="#fea973" stroke-width="1.51"/><path d="M465,940L531,1162L631,958Z" fill="#e97d50" stroke="#e97d50" stroke-width="1.51"/><path d="M445,794L606,866L638,696Z" fill="#f79265" stroke="#f79265" stroke-width="1.51"/><path d="M478,660L445,794L638,696Z" fill="#f99b6c" stroke="#f99b6c" stroke-width="1.51"/><path d="M624,595L478,660L638,696Z" fill="#fb9e6d" stroke="#fb9e6d" stroke-width="1.51"/><path d="M311,-201L386,-161L641,-260Z" fill="#ffdfba" stroke="#ffdfba" stroke-width="1.51"/><path d="M386,-161L437,-73L641,-260Z" fill="#ffdbb5" stroke="#ffdbb5" stroke-width="1.51"/><path d="M606,866L465,940L631,958Z" fill="#f08457" stroke="#f08457" stroke-width="1.51"/><path d="M465,940L474,1158L531,1162Z" fill="#e47b4e" stroke="#e47b4e" stroke-width="1.51"/><path d="M531,1162L409,1276L600,1346Z" fill="#cf7146" stroke="#cf7146" stroke-width="1.51"/><path d="M478,574L478,660L624,595Z" fill="#fca470" stroke="#fca470" stroke-width="1.51"/><path d="M407,259L490,382L591,200Z" fill="#fdc58e" stroke="#fdc58e" stroke-width="1.51"/><path d="M445,794L465,940L606,866Z" fill="#f38c5f" stroke="#f38c5f" stroke-width="1.51"/><path d="M379,73L407,259L546,58Z" fill="#fdd19a" stroke="#fdd19a" stroke-width="1.51"/><path d="M546,58L407,259L591,200Z" fill="#fdcb94" stroke="#fdcb94" stroke-width="1.51"/><path d="M474,1158L409,1276L531,1162Z" fill="#d87648" stroke="#d87648" stroke-width="1.51"/><path d="M490,382L478,574L565,440Z" fill="#feb37c" stroke="#feb37c" stroke-width="1.51"/><path d="M465,940L326,1100L474,1158Z" fill="#e67f52" stroke="#e67f52" stroke-width="1.51"/><path d="M539,-14L379,73L546,58Z" fill="#fed3a1" stroke="#fed3a1" stroke-width="1.51"/><path d="M437,-73L379,73L539,-14Z" fill="#fed6a7" stroke="#fed6a7" stroke-width="1.51"/><path d="M304,439L339,565L478,574Z" fill="#feb27c" stroke="#feb27c" stroke-width="1.51"/><path d="M304,439L478,574L490,382Z" fill="#feb780" stroke="#feb780" stroke-width="1.51"/><path d="M445,794L330,877L465,940Z" fill="#f39062" stroke="#f39062" stroke-width="1.51"/><path d="M338,678L445,794L478,660Z" fill="#fa9f71" stroke="#fa9f71" stroke-width="1.51"/><path d="M407,259L304,439L490,382Z" fill="#fdc38c" stroke="#fdc38c" stroke-width="1.51"/><path d="M478,574L339,565L478,660Z" fill="#fca975" stroke="#fca975" stroke-width="1.51"/><path d="M339,565L338,678L478,660Z" fill="#fca876" stroke="#fca876" stroke-width="1.51"/><path d="M330,877L326,1100L465,940Z" fill="#ee885a" stroke="#ee885a" stroke-width="1.51"/><path d="M326,1100L409,1276L474,1158Z" fill="#dc794b" stroke="#dc794b" stroke-width="1.51"/><path d="M-215,-263L-60,-209L138,-222Z" fill="#fff0dc" stroke="#fff0dc" stroke-width="1.51"/><path d="M229,989L326,1100L330,877Z" fill="#ee895e" stroke="#ee895e" stroke-width="1.51"/><path d="M379,73L296,79L407,259Z" fill="#fdd49d" stroke="#fdd49d" stroke-width="1.51"/><path d="M296,79L237,192L407,259Z" fill="#fdd29e" stroke="#fdd29e" stroke-width="1.51"/><path d="M255,-31L379,73L437,-73Z" fill="#fedaac" stroke="#fedaac" stroke-width="1.51"/><path d="M338,678L330,877L445,794Z" fill="#f89b6e" stroke="#f89b6e" stroke-width="1.51"/><path d="M386,-161L255,-31L437,-73Z" fill="#fedeb4" stroke="#fedeb4" stroke-width="1.51"/><path d="M255,-31L296,79L379,73Z" fill="#fed9aa" stroke="#fed9aa" stroke-width="1.51"/><path d="M237,192L304,439L407,259Z" fill="#fdcc96" stroke="#fdcc96" stroke-width="1.51"/><path d="M326,1100L232,1299L409,1276Z" fill="#d67a4f" stroke="#d67a4f" stroke-width="1.51"/><path d="M187,714L330,877L338,678Z" fill="#faa075" stroke="#faa075" stroke-width="1.51"/><path d="M311,-201L255,-31L386,-161Z" fill="#fee1ba" stroke="#fee1ba" stroke-width="1.51"/><path d="M103,240L113,415L237,192Z" fill="#fed1a2" stroke="#fed1a2" stroke-width="1.51"/><path d="M237,192L113,415L304,439Z" fill="#fecb99" stroke="#fecb99" stroke-width="1.51"/><path d="M160,1106L232,1299L326,1100Z" fill="#df8055" stroke="#df8055" stroke-width="1.51"/><path d="M187,714L118,824L330,877Z" fill="#f89d75" stroke="#f89d75" stroke-width="1.51"/><path d="M304,439L110,557L339,565Z" fill="#ffb784" stroke="#ffb784" stroke-width="1.51"/><path d="M187,714L338,678L339,565Z" fill="#fdaa7b" stroke="#fdaa7b" stroke-width="1.51"/><path d="M110,557L187,714L339,565Z" fill="#feaf82" stroke="#feaf82" stroke-width="1.51"/><path d="M118,824L229,989L330,877Z" fill="#f4946b" stroke="#f4946b" stroke-width="1.51"/><path d="M138,-222L255,-31L311,-201Z" fill="#ffe4c2" stroke="#ffe4c2" stroke-width="1.51"/><path d="M229,989L160,1106L326,1100Z" fill="#e8865c" stroke="#e8865c" stroke-width="1.51"/><path d="M138,-222L137,-51L255,-31Z" fill="#fee5c2" stroke="#fee5c2" stroke-width="1.51"/><path d="M113,415L110,557L304,439Z" fill="#ffbf8f" stroke="#ffbf8f" stroke-width="1.51"/><path d="M255,-31L97,125L296,79Z" fill="#fedcaf" stroke="#fedcaf" stroke-width="1.51"/><path d="M97,125L237,192L296,79Z" fill="#fed8a8" stroke="#fed8a8" stroke-width="1.51"/><path d="M118,824L125,995L229,989Z" fill="#f3926b" stroke="#f3926b" stroke-width="1.51"/><path d="M160,1106L167,1337L232,1299Z" fill="#d47e58" stroke="#d47e58" stroke-width="1.51"/><path d="M137,-51L97,125L255,-31Z" fill="#fee0b7" stroke="#fee0b7" stroke-width="1.51"/><path d="M125,995L160,1106L229,989Z" fill="#ec8b63" stroke="#ec8b63" stroke-width="1.51"/><path d="M97,125L103,240L237,192Z" fill="#fed7a9" stroke="#fed7a9" stroke-width="1.51"/><path d="M160,1106L17,1318L167,1337Z" fill="#d4805c" stroke="#d4805c" stroke-width="1.51"/><path d="M-52,1135L17,1318L160,1106Z" fill="#df8561" stroke="#df8561" stroke-width="1.51"/><path d="M-10,643L118,824L187,714Z" fill="#fca985" stroke="#fca985" stroke-width="1.51"/><path d="M110,557L-10,643L187,714Z" fill="#ffb189" stroke="#ffb189" stroke-width="1.51"/><path d="M103,240L19,284L113,415Z" fill="#ffd2a6" stroke="#ffd2a6" stroke-width="1.51"/><path d="M118,824L-3,973L125,995Z" fill="#f49571" stroke="#f49571" stroke-width="1.51"/><path d="M-20,-101L137,-51L138,-222Z" fill="#fee8ca" stroke="#fee8ca" stroke-width="1.51"/><path d="M125,995L-52,1135L160,1106Z" fill="#e98b66" stroke="#e98b66" stroke-width="1.51"/><path d="M19,284L36,418L113,415Z" fill="#ffcda2" stroke="#ffcda2" stroke-width="1.51"/><path d="M36,418L110,557L113,415Z" fill="#ffc296" stroke="#ffc296" stroke-width="1.51"/><path d="M-10,643L-39,809L118,824Z" fill="#fca887" stroke="#fca887" stroke-width="1.51"/><path d="M-3,973L-52,1135L125,995Z" fill="#ed8f6c" stroke="#ed8f6c" stroke-width="1.51"/><path d="M-61,88L97,125L137,-51Z" fill="#fee1ba" stroke="#fee1ba" stroke-width="1.51"/><path d="M-20,-101L-61,88L137,-51Z" fill="#fee6c4" stroke="#fee6c4" stroke-width="1.51"/><path d="M-60,-209L-20,-101L138,-222Z" fill="#ffecd3" stroke="#ffecd3" stroke-width="1.51"/><path d="M36,418L-10,576L110,557Z" fill="#ffbe93" stroke="#ffbe93" stroke-width="1.51"/><path d="M-10,576L-10,643L110,557Z" fill="#ffb78f" stroke="#ffb78f" stroke-width="1.51"/><path d="M-39,809L-3,973L118,824Z" fill="#f79d7b" stroke="#f79d7b" stroke-width="1.51"/><path d="M97,125L19,284L103,240Z" fill="#fed8ac" stroke="#fed8ac" stroke-width="1.51"/><path d="M-61,88L19,284L97,125Z" fill="#fedcb3" stroke="#fedcb3" stroke-width="1.51"/><path d="M-147,-51L-61,88L-20,-101Z" fill="#ffe8ca" stroke="#ffe8ca" stroke-width="1.51"/><path d="M-52,1135L-113,1164L17,1318Z" fill="#dd8667" stroke="#dd8667" stroke-width="1.51"/><path d="M-61,88L-157,254L19,284Z" fill="#ffdcb5" stroke="#ffdcb5" stroke-width="1.51"/><path d="M-146,541L-10,576L36,418Z" fill="#ffc198" stroke="#ffc198" stroke-width="1.51"/><path d="M-155,425L-146,541L36,418Z" fill="#ffc7a1" stroke="#ffc7a1" stroke-width="1.51"/><path d="M19,284L-155,425L36,418Z" fill="#ffcfa6" stroke="#ffcfa6" stroke-width="1.51"/><path d="M-130,638L-39,809L-10,643Z" fill="#ffb08f" stroke="#ffb08f" stroke-width="1.51"/><path d="M-39,809L-168,875L-3,973Z" fill="#f89d7e" stroke="#f89d7e" stroke-width="1.51"/><path d="M-113,1164L-198,1274L17,1318Z" fill="#d78569" stroke="#d78569" stroke-width="1.51"/><path d="M-157,254L-155,425L19,284Z" fill="#ffd6b0" stroke="#ffd6b0" stroke-width="1.51"/><path d="M-10,576L-130,638L-10,643Z" fill="#ffb692" stroke="#ffb692" stroke-width="1.51"/><path d="M-204,956L-52,1135L-3,973Z" fill="#f09273" stroke="#f09273" stroke-width="1.51"/><path d="M-168,875L-204,956L-3,973Z" fill="#f69a7c" stroke="#f69a7c" stroke-width="1.51"/><path d="M-146,541L-130,638L-10,576Z" fill="#ffbb96" stroke="#ffbb96" stroke-width="1.51"/><path d="M-147,-51L-173,47L-61,88Z" fill="#ffe7c8" stroke="#ffe7c8" stroke-width="1.51"/><path d="M-204,956L-113,1164L-52,1135Z" fill="#eb8f71" stroke="#eb8f71" stroke-width="1.51"/><path d="M-60,-209L-147,-51L-20,-101Z" fill="#ffedd3" stroke="#ffedd3" stroke-width="1.51"/><path d="M-130,638L-168,875L-39,809Z" fill="#fdaa8d" stroke="#fdaa8d" stroke-width="1.51"/><path d="M-173,47L-157,254L-61,88Z" fill="#ffe2be" stroke="#ffe2be" stroke-width="1.51"/><path d="M-215,-263L-147,-51L-60,-209Z" fill="#fff0dc" stroke="#fff0dc" stroke-width="1.51"/><path d="M-204,956L-198,1274L-113,1164Z" fill="#e88d70" stroke="#e88d70" stroke-width="1.51"/><path d="M-146,541L-168,875L-130,638Z" fill="#ffb395" stroke="#ffb395" stroke-width="1.51"/><path d="M-215,-263L-173,47L-147,-51Z" fill="#ffeed7" stroke="#ffeed7" stroke-width="1.51"/><path d="M-155,425L-204,956L-146,541Z" fill="#ffb798" stroke="#ffb798" stroke-width="1.51"/><path d="M-204,956L-168,875L-146,541Z" fill="#fdaa8e" stroke="#fdaa8e" stroke-width="1.51"/><path d="M-157,254L-173,47L-155,425Z" fill="#ffdcb9" stroke="#ffdcb9" stroke-width="1.51"/><path d="M-173,47L-204,956L-155,425Z" fill="#ffc8a4" stroke="#ffc8a4" stroke-width="1.51"/><path d="M-215,-263L-204,956L-173,47Z" fill="#ffddbb" stroke="#ffddbb" stroke-width="1.51"/></svg>